<?xml version="1.0" encoding="utf-8" ?>
<svg xmlns="http://www.w3.org/2000/svg" xmlns:xlink="http://www.w3.org/1999/xlink" width="512" height="512">
	<path d="M39.4905 190.283C37.1928 188.637 34.045 187.758 32.1586 185.681C31.867 185.36 27.6716 163.465 39.6883 164.484C44.8002 167.213 46.4728 168.028 45.9864 173.703L45.1707 181.33C44.7453 184.456 43.4126 189.379 39.7204 190.259L39.4905 190.283Z"/>
	<path d="M38.531 149.416C29.3989 145.318 31.5758 143.874 31.5728 134.553L31.5849 94.6023C31.5889 89.7678 31.1346 84.4749 32.1371 79.75L32.2021 79.4335C34.7476 67.3385 46.6608 55.3937 59.5 54.7889L388.023 54.7548C390.141 54.7047 392.19 54.2197 394.33 54.1727L445.018 54.0916C447.652 54.097 450.394 54.033 453 54.4384L453.336 54.4873C463.607 56.0513 473.423 63.64 477.933 73.0164L478.15 73.4616C481.401 80.307 480.856 87.0008 480.857 94.3464L480.887 377.348L499.175 377.234C501.563 377.322 503.951 377.233 506.26 377.929L506.589 378.026C511.507 379.522 509.932 383.584 509.938 388.587L509.924 413.265C509.863 435.621 492.233 453.273 470.003 454.32L52.5856 454.404C45.6258 454.396 38.9963 454.672 32.2808 452.512C12.8399 446.258 2.08171 428.168 2.03052 408.445L2.03125 388.485C2.05201 383.209 2.29291 377.958 8.88187 377.431C11.2803 377.239 30.8549 377.874 31.5917 377.196L31.5957 226.898C31.5894 220.818 28.5657 202.415 38.0707 202.651C39.597 201.954 39.2583 201.302 39.3453 199.875L39.6396 190.283L39.7204 190.259C43.4126 189.379 44.7453 184.456 45.1707 181.33L45.9864 173.703C46.4728 168.028 44.8002 167.213 39.6883 164.484C39.7556 161.777 40.829 150.916 38.531 149.416ZM73.8392 98.7257L73.8985 121.393L73.9251 176.478C73.9255 178.387 73.6154 181.111 74.2075 182.911C74.6261 184.185 76.8949 186.054 76.7198 187.263C76.0613 191.809 76.4953 196.953 76.4957 201.56L76.4862 236.77C76.4798 242.449 74.7 242.191 73.9918 246.5L73.9233 246.89C73.4929 249.635 73.9991 253.525 74.9521 256.135L77.0885 257.732C86.9957 255.143 93.4911 254.692 103.493 254.509L194.375 254.164C198.156 254.159 202.236 253.688 205.948 254.515C206.637 254.669 207.132 254.729 207.838 254.682C210.126 256.616 212.446 258.688 215.25 259.8L215.665 259.978C217.452 260.459 220.56 258.535 222.047 257.752C222.801 258.456 224.878 258.369 226 258.75L236.25 262.497C238.079 263.268 240.105 263.971 241.062 265.834L241.403 266.484C241.242 269.004 239.738 271.584 239.37 274.154C238.732 278.602 241.81 283.626 246.557 283.976C253.694 284.503 254.091 275.332 254.546 270.352L255.609 257.059L255.865 257.89C257.956 258.312 260.746 257.853 262.907 257.811L292.479 256.462C299.967 263.435 305.089 255.809 310.531 250.508L335.318 250.699L335.519 245.149C335.757 241.753 337.586 240.775 340.271 238.896L347.223 233.984C360.988 223.202 363.135 217.511 363.066 201.533L363.014 110.01C363.013 105.726 362.911 101.435 363.27 97.2355L83.5348 97.2685C80.2657 97.2772 76.8444 97.0678 73.625 97.6903L73.8392 98.7257Z"/>
	<path d="M468.07 193.904C468.946 195.036 468.663 196.04 468.795 197.315L468.841 294.868C468.876 297.286 469.336 299.634 469.377 302.034L469.418 335.333C469.428 339.632 470.036 344.516 469.451 348.749L468.82 300.967C468.813 300.076 468.908 296.167 468.486 295.75C467.683 299.96 467.523 319.572 468.425 324.083C469.052 327.215 468.78 334.197 468.782 337.404L468.07 193.904Z"/>
	<path d="M468.26 193.904L468.067 141.802C468.127 139.44 468.688 137.171 468.734 134.795L468.774 84.3781C468.783 81.778 468.896 79.1173 468.605 76.5301C471.5 78.9128 471.003 94.3023 471.013 98.0384L470.356 121.229C470.081 125.509 469.493 129.858 469.427 134.13L469.379 165.625C469.337 168.758 468.836 171.833 468.831 174.99L468.844 190.044C468.848 192.378 469.083 195.015 468.794 197.315C468.663 196.04 468.946 195.036 468.26 193.904Z"/>
	<path fill="#00385C" d="M295.102 391.41C300.483 390.569 306.105 391.373 311.448 390.526C311.524 401.871 310.51 405.325 297.854 405.18L287.46 405.05L293.781 405.006C294.29 404.33 294.476 403.861 294.657 403.036L295.276 400.25C295.943 397.448 295.767 394.65 295.667 391.793L295.102 391.41Z"/>
	<path fill="#003E6B" d="M45.3776 80.2173L45.4975 79.7563C46.8588 74.4149 51.689 70.0447 56.8672 68.3917L57.25 68.2724C60.0496 67.3708 63.7982 67.733 66.7618 67.7457L65.44 81.6209C63.0285 81.0729 60.3176 81.0727 57.8516 80.9305L45.3776 80.2173Z"/>
	<path fill="#064789" d="M287.46 405.048L235.556 405.077C226.97 405.092 218.158 405.544 209.592 405.113C205.788 404.922 202.533 401.856 201.752 398.127L201.678 397.75C201.236 395.655 201.231 393.527 201.159 391.394L295.069 391.452L295.667 391.793C295.767 394.65 295.943 397.448 295.276 400.25L294.657 403.036C294.476 403.861 294.29 404.33 293.781 405.006L287.46 405.048Z"/>
	<path fill="#214A5E" d="M456.698 390.742L467.579 390.668C470.661 390.527 473.635 390.075 476.757 390.031L489.035 389.929C492.245 389.902 495.718 389.908 498.877 389.328L498.793 405.201C498.741 412.595 499.04 419.71 494.844 426.093C489.976 433.498 482.879 439.731 474.039 441.645L471.325 442.083C469.041 442.415 466.679 442.31 464.375 442.306L439.736 442.221C436.488 442.203 433.144 442.339 429.937 441.782C439.437 438.803 446.663 431.3 457.875 429.762C461.673 429.242 466.151 429.077 469.392 426.816C478.33 420.577 476.975 402.608 470.624 393.752C468.154 390.309 469.156 390.751 464.922 390.748L456.698 390.742Z"/>
	<path fill="#064789" d="M66.7618 67.9769C70.7845 67.4739 74.8659 67.5657 78.9 67.5574L144.066 68.3227L145.91 68.5096L188.896 68.2688C189.143 70.6008 190.717 72.1081 191.159 74.2944C191.621 76.5802 191.037 79.0363 191.496 81.375L191.092 81.7845C188.678 81.6872 186.253 82.1458 183.832 82.2002L76.6565 82.2111C73.0694 82.1991 68.9356 82.5673 65.44 81.7687L66.7618 67.9769Z"/>
	<path fill="#003E6B" d="M144.066 68.4037L145.91 68.5096L145.687 70.8452C145.544 71.7341 145.345 73.135 144.586 73.6928L144.199 73.536C143.388 71.9859 143.827 70.0576 144.066 68.4037Z"/>
	<path fill="#003E6B" d="M188.896 68.2485L378.573 67.6343L378.515 68.0785C376.853 78.049 379.822 80.3609 365.345 81.4846C357.772 82.0724 349.834 81.6187 342.225 81.6137L272.638 81.6329C270.631 81.6743 268.677 82.0515 266.679 82.1286L244.692 82.1363C242.712 82.0318 240.798 81.6798 238.799 81.6409L191.092 82.103L191.496 81.375C191.037 79.0363 191.621 76.5802 191.159 74.2944C190.717 72.1081 189.143 70.6008 188.896 68.2485Z"/>
	<path fill="#427AA1" d="M429.937 441.695C421.974 442.424 414.231 442.244 406.231 442.239L384.074 442.18C381.14 442.107 378.305 441.586 375.356 441.568L133.75 441.6C131.134 441.626 128.575 442.144 126 442.201L43.8795 442.216C36.8179 441.954 28.4703 437.008 23.7906 431.883C16.2341 423.607 15.2804 412.652 15.2484 401.982L15.3491 390.852L189.005 390.78C190.127 396.712 188.191 400.994 191.911 407.189C199.59 419.98 216.55 418.038 229.758 418.072L288.852 418.072C300.893 418.054 311.556 419.361 319.912 408.668C323.718 403.797 324.103 396.969 323.288 391.046L456.698 390.749L464.922 390.748C469.156 390.751 468.154 390.309 470.624 393.752C476.975 402.608 478.33 420.577 469.392 426.816C466.151 429.077 461.673 429.242 457.875 429.762C446.663 431.3 439.437 438.803 429.937 441.695Z"/>
	<path d="M380.016 411.547L395.116 411.523C397.917 411.524 402.952 410.88 405.365 412.189C411.442 415.486 409.854 422.621 402.942 424.276C399.235 424.876 383.971 424.64 380.344 424.143C371.262 422.898 372.06 413.259 380.016 411.547Z"/>
	<path d="M112.639 411.357L127.318 411.492C129.648 411.487 132.233 411.258 134.53 411.555C139.602 412.212 143.403 423.077 132.312 424.238L118.806 424.36C115.823 424.362 112.504 424.603 109.566 424.072C103.088 422.899 100.877 412.158 112.639 411.357Z"/>
	<path d="M58.9467 411.832C62.4622 411.531 84.593 410.954 86.4036 412.306C92.4955 416.856 90.424 423.468 82.5501 424.469C80.9629 424.701 78.4332 424.373 76.7451 424.37L65.7466 424.337C62.6174 424.324 59.4134 424.35 56.3246 423.782C49.2989 422.491 49.8549 413.238 58.9467 411.832Z"/>
	<path d="M448.782 411.546L459.288 411.541C464.648 411.546 466.886 411.308 466.962 418C467.053 425.905 461.808 425.2 455.596 425.205L441.812 425.188C437.584 425.193 419.998 426.546 423.137 417.135L423.231 416.875C423.77 415.338 424.434 414.261 425.771 413.293L426.073 413.082C428.695 411.223 433.961 411.598 437.051 411.583L448.782 411.546Z"/>
	<path fill="#00385C" d="M378.573 67.7448L436.18 69.2342L436.197 104.074L436.067 97.429L363.27 97.2217L83.5348 97.2685C80.2657 97.2772 76.8444 97.0678 73.625 97.6903L73.4563 98.6792L73.9031 121.393L73.9251 176.478C73.9255 178.387 73.6154 181.111 74.2075 182.911C74.6261 184.185 76.8949 186.054 76.7198 187.263C76.0613 191.809 76.4953 196.953 76.4957 201.56L76.4862 236.77C76.4798 242.449 74.7 242.191 73.9918 246.5L73.9233 246.89C73.4929 249.635 73.9991 253.525 74.9521 256.135L77.0885 257.732C79.3818 263.142 78.8631 265.058 78.8789 270.975L78.9947 347.001L246.727 346.989L248.558 345.374C253.208 342.854 259.403 343.105 264.005 345.655L266.11 347.839C267.22 346.856 268.573 346.96 269.752 346.948L430.771 346.936C432.66 346.95 434.647 346.845 436.495 347.272C437.648 348.575 442.902 347.877 444.938 348.666C452.688 351.668 452.868 362.429 450.308 368.987C449.262 371.667 447.74 375.223 446.586 377.936C444.223 378.477 441.631 378.208 439.225 378.128L46.427 377.539C46.0622 374.583 46.3409 371.292 46.3372 368.303L45.7988 217.682C45.796 207.562 48.6393 205.936 38.0707 202.651C39.597 201.954 39.2583 201.302 39.3453 199.875L39.6396 190.283L39.7204 190.259C43.4126 189.379 44.7453 184.456 45.1707 181.33L45.9864 173.703C46.4728 168.028 44.8002 167.213 39.6883 164.484C39.7556 161.777 40.829 150.916 38.531 149.416C45.4128 146.732 45.1606 143.377 45.0914 136.998L45.189 80.2173L57.8516 80.9305C60.3176 81.0727 63.0285 81.0729 65.44 81.6209C68.9356 82.5673 73.0694 82.1991 76.6565 82.2111L183.832 82.2002C186.253 82.1458 188.678 81.6872 191.092 81.7845L238.799 81.6409C240.798 81.6798 242.712 82.0318 244.692 82.1363L266.679 82.1286C268.677 82.0515 270.631 81.6743 272.638 81.6329L342.225 81.6137C349.834 81.6187 357.772 82.0724 365.345 81.4846C379.822 80.3609 376.853 78.049 378.515 68.0785L378.573 67.7448Z"/>
	<path fill="#003E6B" d="M73.9031 121.393C71.8246 121.478 70.4088 122.74 68.5675 123.228L68.25 123.309C65.39 124.083 62.7048 124.053 59.9363 122.958C58.4351 118.704 58.1731 113.738 58.0454 109.277C57.836 101.96 68.337 104.074 73.0151 103.932C73.3721 103.548 73.2649 99.5455 73.4563 98.7257L73.9031 121.393Z"/>
	<path d="M248.558 345.374C253.208 342.854 259.403 343.105 264.005 345.655L266.11 347.839C269.702 356.187 262.908 368.02 253.242 364.886L251.762 364.372C244.696 361.358 243.715 353.29 246.727 346.989L248.558 345.374Z"/>
	<path fill="#064789" d="M363.27 97.1616L436.067 97.429L436.198 104.074L436.191 347.577C434.647 346.845 432.66 346.95 430.771 346.936L269.752 346.948C268.573 346.96 267.22 346.856 266.11 347.299L264.005 345.655C259.403 343.105 253.208 342.854 248.558 345.374L246.727 346.989L78.9947 347.001L78.8789 270.975C78.8631 265.058 79.3818 263.142 77.0885 257.732C86.9957 255.143 93.4911 254.692 103.493 254.509L194.375 254.164C198.156 254.159 202.236 253.688 205.948 254.515C206.637 254.669 207.132 254.729 207.838 254.682C210.126 256.616 212.446 258.688 215.25 259.8L215.665 259.978C217.452 260.459 220.56 258.535 222.047 257.752C222.801 258.456 224.878 258.369 226 258.75L236.25 262.497C238.079 263.268 240.105 263.971 241.062 265.834L241.403 266.484C241.242 269.004 239.738 271.584 239.37 274.154C238.732 278.602 241.81 283.626 246.557 283.976C253.694 284.503 254.091 275.332 254.546 270.352L255.606 256.947L255.865 257.89C257.956 258.312 260.746 257.853 262.907 257.811L292.479 256.464C299.967 263.435 305.089 255.809 310.531 250.367L335.318 250.699L335.519 245.149C335.757 241.753 337.586 240.775 340.271 238.896L347.223 233.984C360.988 223.202 363.135 217.511 363.066 201.533L363.014 110.01C363.013 105.726 362.911 101.435 363.27 97.1616Z"/>
	<path fill="#EBF2FA" d="M248.558 345.374C248.156 344.537 247.319 343.762 247.228 342.875L247.277 341.625C252.516 336.276 266.149 340.538 264.167 345.382L264.005 345.655C259.403 343.105 253.208 342.854 248.558 345.374Z"/>
	<path d="M207.838 254.682L179.14 226.852C166.682 214.957 173.669 210.76 182.789 201.789L209.016 175.34C210.161 174.242 211.469 173.434 213 173.011L213.32 172.919C219.554 171.326 224.253 179.309 221.067 184.561L220.885 184.875C219.905 186.494 218.316 187.828 216.972 189.151L189.794 216.762C191.56 218.211 193.198 219.968 194.853 221.553L205.074 231.426C210.312 236.467 221.937 245.434 224.386 252.08C223.792 254.01 223.323 256.144 222.047 257.752C220.56 258.535 217.452 260.459 215.665 259.978L215.25 259.8C212.446 258.688 210.126 256.616 207.838 254.682Z"/>
	<path d="M292.479 256.462C287.544 247.336 295.654 243.924 301.717 237.903L323.009 216.354L302.922 196.003C299.182 192.28 293.008 188.117 290.572 183.448L290.051 182.454C289.53 181.323 289.615 179.746 290.075 178.616L290.233 178.25C290.875 176.71 291.744 175.473 293.201 174.596L294.401 173.937C296.198 173.116 299.06 172.808 300.916 173.604L301.572 173.893C303.48 174.75 305.252 177.148 306.681 178.698L337.931 209.105C346.046 217.604 339.5 222.86 332.534 229.572L324.092 237.592C319.38 241.788 314.67 245.548 310.531 250.367C305.089 255.809 299.967 263.435 292.479 256.462Z"/>
	<path d="M241.403 266.484C242.749 260.148 242.857 254.085 243.352 247.673L246.073 225.875L255.583 168.68C256.221 165.504 256.771 162.149 257.882 159.104C260.273 152.553 267.731 152.019 271.628 157.356C274.006 160.611 272.196 165.469 271.684 169.096L260.08 242.628C259.054 247.551 256.142 253.427 255.65 256.66L255.609 256.947L254.546 270.352C254.091 275.332 253.694 284.503 246.557 283.976C241.81 283.626 238.732 278.602 239.37 274.154C239.738 271.584 241.242 269.004 241.403 266.484Z"/>
	<path d="M258.53 195.125L258.726 195.41C258.766 197.8 258.828 200.517 258.426 202.879L257.25 212C257.035 213.418 256.327 218.17 256.938 219.188L257 217.875C257.695 215.444 258 212.524 258 210C258.269 209.596 259.738 198.943 259.75 198.625L257.811 215.501C256.648 222.707 256.405 230.301 254.412 237.331C253.915 232.778 255.345 227.378 255.931 222.875L258.119 202.501C258.409 200.062 258.449 197.58 258.53 195.125Z"/>
</svg>
